<?xml version="1.0" ?>
<svg xmlns="http://www.w3.org/2000/svg" width="1000" height="600" version="1.1">
  <defs>
    <marker id="arrowhead" markerWidth="10" markerHeight="10" refX="9" refY="3" orient="auto">
      <polygon points="0 0, 10 3, 0 6" fill="#000000"/>
    </marker>
    <marker id="arrowhead-blue" markerWidth="10" markerHeight="10" refX="9" refY="3" orient="auto">
      <polygon points="0 0, 10 3, 0 6" fill="#0066cc"/>
    </marker>
  </defs>
  <rect width="1000" height="600" fill="#FFFFFF"/>
  <text x="500.0" y="40" text-anchor="middle" font-size="24" font-weight="bold" font-family="Arial" fill="#333333">Circuit Diagram</text>
  <g id="objects">
    <g id="battery_150_300">
      <line x1="145" y1="275.0" x2="145" y2="325.0" stroke="#000000" stroke-width="3"/>
      <line x1="155" y1="285.0" x2="155" y2="315.0" stroke="#000000" stroke-width="2"/>
      <line x1="110.0" y1="300" x2="145" y2="300" stroke="#000000" stroke-width="2.0"/>
      <line x1="155" y1="300" x2="190.0" y2="300" stroke="#000000" stroke-width="2.0"/>
      <text x="130" y="305" text-anchor="middle" font-size="18" font-weight="bold" fill="#000000">+</text>
      <text x="150" y="260.0" text-anchor="middle" font-size="14" font-family="Arial">10V</text>
    </g>
    <g id="resistor_400_300">
      <path d="M 364.0 300 L 370.0 315.0 L 382.0 285.0 L 394.0 315.0 L 406.0 285.0 L 418.0 315.0 L 430.0 285.0 L 436.0 300" stroke="#000000" fill="none" stroke-width="2.0"/>
      <line x1="340.0" y1="300" x2="364.0" y2="300" stroke="#000000" stroke-width="2.0"/>
      <line x1="436.0" y1="300" x2="460.0" y2="300" stroke="#000000" stroke-width="2.0"/>
      <text x="400" y="270" text-anchor="middle" font-size="14" font-family="Arial">100Ω</text>
    </g>
    <g id="capacitor_650_300">
      <line x1="642.0" y1="270.0" x2="642.0" y2="330.0" stroke="#000000" stroke-width="2"/>
      <line x1="658.0" y1="270.0" x2="658.0" y2="330.0" stroke="#000000" stroke-width="2"/>
      <line x1="610.0" y1="300" x2="642.0" y2="300" stroke="#000000" stroke-width="2.0"/>
      <line x1="658.0" y1="300" x2="690.0" y2="300" stroke="#000000" stroke-width="2.0"/>
      <text x="650" y="260.0" text-anchor="middle" font-size="14" font-family="Arial">10μF</text>
    </g>
  </g>
  <g id="relationships">
    <line x1="150" y1="300" x2="400" y2="300" stroke="#666666" stroke-width="2"/>
    <line x1="400" y1="300" x2="650" y2="300" stroke="#666666" stroke-width="2"/>
  </g>
  <g id="annotations">
    <text x="500.0" y="150" font-size="14" font-family="Arial" fill="#333333">r = 0</text>
    <text x="500.0" y="180" font-size="14" font-family="Arial" fill="#333333">h = 10 cm</text>
    <text x="500.0" y="210" font-size="14" font-family="Arial" fill="#333333">C = 35 pF</text>
  </g>
</svg>
