<svg width="1400" height="900" xmlns="http://www.w3.org/2000/svg">
  <rect width="100%" height="100%" fill="#f8f9fa"/>
  <text x="700" y="40" text-anchor="middle" font-size="24" font-weight="bold" fill="#2c3e50">Q8: Multi-Dielectric Capacitor</text>

  <!-- Top plate -->
  <rect x="200" y="150" width="600" height="20" fill="#3498db" stroke="#2c3e50" stroke-width="3"/>
  <text x="500" y="135" text-anchor="middle" font-size="18" font-weight="bold" fill="#2c3e50">Top Plate (+)</text>

  <!-- Bottom plate -->
  <rect x="200" y="550" width="600" height="20" fill="#e74c3c" stroke="#2c3e50" stroke-width="3"/>
  <text x="500" y="600" text-anchor="middle" font-size="18" font-weight="bold" fill="#2c3e50">Bottom Plate (−)</text>

  <!-- Left half: κ₁ = 21.0 -->
  <rect x="200" y="170" width="300" height="380" fill="#9b59b6" opacity="0.3" stroke="#8e44ad" stroke-width="3"/>
  <text x="350" y="360" text-anchor="middle" font-size="20" font-weight="bold" fill="#8e44ad">κ₁ = 21.0</text>
  <text x="350" y="390" text-anchor="middle" font-size="14" fill="#7f8c8d">(Left Half)</text>

  <!-- Right top: κ₂ = 42.0 -->
  <rect x="500" y="170" width="300" height="190" fill="#27ae60" opacity="0.3" stroke="#16a085" stroke-width="3"/>
  <text x="650" y="265" text-anchor="middle" font-size="20" font-weight="bold" fill="#16a085">κ₂ = 42.0</text>
  <text x="650" y="290" text-anchor="middle" font-size="14" fill="#7f8c8d">(Right Top)</text>

  <!-- Right bottom: κ₃ = 58.0 -->
  <rect x="500" y="360" width="300" height="190" fill="#e67e22" opacity="0.3" stroke="#d35400" stroke-width="3"/>
  <text x="650" y="455" text-anchor="middle" font-size="20" font-weight="bold" fill="#d35400">κ₃ = 58.0</text>
  <text x="650" y="480" text-anchor="middle" font-size="14" fill="#7f8c8d">(Right Bottom)</text>

  <!-- Vertical divider -->
  <line x1="500" y1="170" x2="500" y2="550" stroke="#2c3e50" stroke-width="2" stroke-dasharray="10,5"/>

  <!-- Horizontal divider (right side) -->
  <line x1="500" y1="360" x2="800" y2="360" stroke="#2c3e50" stroke-width="2" stroke-dasharray="10,5"/>

  <!-- Dimensions -->
  <line x1="820" y1="170" x2="820" y2="550" stroke="#34495e" stroke-width="2"/>
  <line x1="815" y1="170" x2="825" y2="170" stroke="#34495e" stroke-width="2"/>
  <line x1="815" y1="550" x2="825" y2="550" stroke="#34495e" stroke-width="2"/>
  <text x="840" y="365" font-size="16" fill="#34495e">d = 7.12 mm</text>

  <!-- Circuit diagram -->
  <g transform="translate(900, 200)">
    <text x="0" y="0" font-size="18" font-weight="bold" fill="#16a085">Equivalent Circuit:</text>

    <!-- C_left -->
    <line x1="50" y1="60" x2="50" y2="120" stroke="#2c3e50" stroke-width="3"/>
    <line x1="80" y1="60" x2="80" y2="120" stroke="#2c3e50" stroke-width="3"/>
    <text x="65" y="50" text-anchor="middle" font-size="14" fill="#8e44ad">C₁</text>

    <!-- Parallel symbol -->
    <text x="120" y="95" font-size="20" fill="#2c3e50">||</text>

    <!-- C2 and C3 in series -->
    <g transform="translate(150, 40)">
      <line x1="20" y1="20" x2="20" y2="60" stroke="#2c3e50" stroke-width="3"/>
      <line x1="50" y1="20" x2="50" y2="60" stroke="#2c3e50" stroke-width="3"/>
      <text x="35" y="15" text-anchor="middle" font-size="14" fill="#16a085">C₂</text>

      <line x1="20" y1="100" x2="20" y2="140" stroke="#2c3e50" stroke-width="3"/>
      <line x1="50" y1="100" x2="50" y2="140" stroke="#2c3e50" stroke-width="3"/>
      <text x="35" y="155" text-anchor="middle" font-size="14" fill="#d35400">C₃</text>

      <line x1="35" y1="60" x2="35" y2="100" stroke="#2c3e50" stroke-width="2"/>
    </g>

    <text x="20" y="200" font-size="14" fill="#7f8c8d">C_eq = C₁ || (C₂ + C₃)</text>

    <text x="0" y="240" font-size="16" font-weight="bold" fill="#16a085">Given:</text>
    <text x="10" y="265" font-size="13" fill="#7f8c8d">• A = 10.5 cm²</text>
    <text x="10" y="285" font-size="13" fill="#7f8c8d">• d = 7.12 mm</text>
    <text x="10" y="305" font-size="13" fill="#7f8c8d">• κ₁ = 21.0 (left half)</text>
    <text x="10" y="325" font-size="13" fill="#7f8c8d">• κ₂ = 42.0 (right top)</text>
    <text x="10" y="345" font-size="13" fill="#7f8c8d">• κ₃ = 58.0 (right bottom)</text>

    <text x="0" y="385" font-size="14" font-weight="bold" fill="#e74c3c">Answer: C = 41.6 pF</text>
  </g>
</svg>