<svg width="1400" height="900" xmlns="http://www.w3.org/2000/svg">
  <rect width="100%" height="100%" fill="#f8f9fa"/>
  <text x="700" y="40" text-anchor="middle" font-size="24" font-weight="bold" fill="#2c3e50">Q6: Parallel-Plate Capacitor with Dielectric (κ=4.8)</text>

  <!-- Top Plate (+Q) -->
  <rect x="300" y="150" width="600" height="20" fill="#3498db" stroke="#2c3e50" stroke-width="3"/>
  <text x="620" y="135" text-anchor="middle" font-size="20" font-weight="bold" fill="#2c3e50">Plate (+Q)</text>

  <!-- Bottom Plate (-Q) -->
  <rect x="300" y="530" width="600" height="20" fill="#e74c3c" stroke="#2c3e50" stroke-width="3"/>
  <text x="620" y="580" text-anchor="middle" font-size="20" font-weight="bold" fill="#2c3e50">Plate (−Q)</text>

  <!-- Air Gap (top) -->
  <rect x="320" y="170" width="560" height="120" fill="none" stroke="#95a5a6" stroke-width="2" stroke-dasharray="5,5"/>
  <text x="1000" y="230" font-size="16" fill="#7f8c8d">Air Gap</text>
  <text x="1000" y="250" font-size="14" fill="#7f8c8d">(4.0 mm)</text>

  <!-- Dielectric slab -->
  <rect x="320" y="290" width="560" height="80" fill="#9b59b6" opacity="0.3" stroke="#8e44ad" stroke-width="3"/>
  <text x="600" y="340" text-anchor="middle" font-size="20" font-weight="bold" fill="#8e44ad">Dielectric</text>
  <text x="600" y="365" text-anchor="middle" font-size="16" fill="#8e44ad">κ = 4.8, t = 4.0 mm</text>

  <!-- Air Gap (bottom) -->
  <rect x="320" y="370" width="560" height="160" fill="none" stroke="#95a5a6" stroke-width="2" stroke-dasharray="5,5"/>
  <text x="1000" y="450" font-size="16" fill="#7f8c8d">Air Gap</text>
  <text x="1000" y="470" font-size="14" fill="#7f8c8d">(4.0 mm)</text>

  <!-- Separation markers -->
  <line x1="900" y1="170" x2="900" y2="530" stroke="#34495e" stroke-width="2"/>
  <line x1="895" y1="170" x2="905" y2="170" stroke="#34495e" stroke-width="2"/>
  <line x1="895" y1="530" x2="905" y2="530" stroke="#34495e" stroke-width="2"/>
  <text x="920" y="350" font-size="16" fill="#34495e">d = 1.2 cm</text>

  <!-- Battery (disconnected) -->
  <g transform="translate(50, 300)">
    <line x1="0" y1="0" x2="0" y2="80" stroke="#2c3e50" stroke-width="4"/>
    <line x1="15" y1="20" x2="15" y2="60" stroke="#2c3e50" stroke-width="6"/>
    <text x="-15" y="10" font-size="20" fill="#e74c3c">+</text>
    <text x="-15" y="95" font-size="20" fill="#3498db">−</text>
    <text x="30" y="45" font-size="18" fill="#2c3e50" font-weight="bold">120 V</text>
    <text x="30" y="70" font-size="14" fill="#e74c3c">(disconnected)</text>

    <!-- Cross mark to show disconnected -->
    <line x1="50" y1="10" x2="100" y2="60" stroke="#e74c3c" stroke-width="3"/>
    <line x1="100" y1="10" x2="50" y2="60" stroke="#e74c3c" stroke-width="3"/>
  </g>

  <!-- Given data -->
  <g transform="translate(1000, 600)">
    <text x="0" y="0" font-size="18" font-weight="bold" fill="#16a085">Given:</text>
    <text x="0" y="25" font-size="14" fill="#2c3e50">• A = 0.12 m²</text>
    <text x="0" y="45" font-size="14" fill="#2c3e50">• d = 1.2 cm</text>
    <text x="0" y="65" font-size="14" fill="#2c3e50">• V₀ = 120 V</text>
    <text x="0" y="85" font-size="14" fill="#2c3e50">• κ = 4.8</text>
    <text x="0" y="105" font-size="14" fill="#2c3e50">• t_d = 4.0 mm</text>

    <text x="0" y="140" font-size="16" font-weight="bold" fill="#e74c3c">Find: E in dielectric</text>
  </g>

  <!-- Key insight -->
  <rect x="50" y="650" width="680" height="80" fill="#e8f5e9" stroke="#27ae60" stroke-width="2" rx="10"/>
  <text x="65" y="680" font-size="16" font-weight="bold" fill="#27ae60">💡 Key Insight:</text>
  <text x="65" y="705" font-size="14" fill="#2c3e50">Battery disconnected → Q constant. Three capacitors in series:</text>
  <text x="65" y="725" font-size="14" fill="#2c3e50">C_air (top) + C_dielectric + C_air (bottom)</text>
</svg>