<svg width="1400" height="1000" xmlns="http://www.w3.org/2000/svg">
  <rect width="100%" height="100%" fill="#f8f9fa"/>
  <text x="700" y="40" text-anchor="middle" font-size="24" font-weight="bold" fill="#2c3e50">Q10: Conducting Liquid Safety Analysis</text>

  <!-- Container (cylinder) -->
  <ellipse cx="400" cy="250" rx="200" ry="50" fill="none" stroke="#2c3e50" stroke-width="3"/>
  <line x1="200" y1="250" x2="200" y2="600" stroke="#2c3e50" stroke-width="3"/>
  <line x1="600" y1="250" x2="600" y2="600" stroke="#2c3e50" stroke-width="3"/>
  <ellipse cx="400" cy="600" rx="200" ry="50" fill="none" stroke="#2c3e50" stroke-width="3"/>
  <text x="400" y="180" text-anchor="middle" font-size="18" font-weight="bold" fill="#2c3e50">Plastic Container</text>
  <text x="400" y="205" text-anchor="middle" font-size="14" fill="#7f8c8d">(Nonconducting)</text>

  <!-- Venting port -->
  <rect x="380" y="220" width="40" height="30" fill="#95a5a6" stroke="#2c3e50" stroke-width="2"/>
  <text x="280" y="210" font-size="12" fill="#7f8c8d">Venting port</text>
  <line x1="330" y1="215" x2="380" y2="230" stroke="#7f8c8d" stroke-width="1"/>

  <!-- Liquid (conducting) -->
  <rect x="210" y="500" width="380" height="95" fill="#3498db" opacity="0.4"/>
  <ellipse cx="400" cy="500" rx="190" ry="47" fill="#2980b9" opacity="0.3" stroke="#2c3e50" stroke-width="2"/>
  <ellipse cx="400" cy="595" rx="190" ry="47" fill="#2980b9" opacity="0.5" stroke="#2c3e50" stroke-width="2"/>
  <text x="400" y="550" text-anchor="middle" font-size="16" font-weight="bold" fill="white">Conducting Liquid</text>
  <text x="400" y="575" text-anchor="middle" font-size="14" fill="white">h = 0.10 m</text>

  <!-- Negative charges on exterior -->
  <g fill="#e74c3c" font-size="20" font-weight="bold">
    <text x="180" y="300">−</text>
    <text x="180" y="350">−</text>
    <text x="180" y="400">−</text>
    <text x="180" y="450">−</text>
    <text x="180" y="500">−</text>
    <text x="180" y="550">−</text>

    <text x="610" y="300">−</text>
    <text x="610" y="350">−</text>
    <text x="610" y="400">−</text>
    <text x="610" y="450">−</text>
    <text x="610" y="500">−</text>
    <text x="610" y="550">−</text>
  </g>

  <!-- Induced positive charges in liquid -->
  <g fill="#3498db" font-size="18" font-weight="bold">
    <text x="380" y="520">+</text>
    <text x="400" y="530">+</text>
    <text x="420" y="520">+</text>
    <text x="370" y="545">+</text>
    <text x="410" y="555">+</text>
    <text x="430" y="545">+</text>
  </g>

  <!-- Dimensions -->
  <line x1="620" y1="500" x2="620" y2="595" stroke="#e74c3c" stroke-width="2"/>
  <line x1="615" y1="500" x2="625" y2="500" stroke="#e74c3c" stroke-width="2"/>
  <line x1="615" y1="595" x2="625" y2="595" stroke="#e74c3c" stroke-width="2"/>
  <text x="640" y="550" font-size="14" fill="#e74c3c" font-weight="bold">h = 0.10 m</text>

  <!-- Radius -->
  <line x1="400" y1="250" x2="600" y2="250" stroke="#34495e" stroke-width="2"/>
  <text x="500" y="240" text-anchor="middle" font-size="14" fill="#34495e">r = 0.20 m</text>

  <!-- Surface charge label -->
  <text x="100" y="700" font-size="14" fill="#7f8c8d">Surface charge density:</text>
  <text x="100" y="720" font-size="14" fill="#e74c3c" font-weight="bold">σ = −2.0 μC/m²</text>

  <!-- Analysis panel -->
  <g transform="translate(750, 250)">
    <rect x="0" y="0" width="600" height="650" fill="white" stroke="#3498db" stroke-width="3" rx="10"/>
    <text x="20" y="35" font-size="20" font-weight="bold" fill="#16a085">Safety Analysis</text>

    <text x="20" y="75" font-size="16" font-weight="bold" fill="#2c3e50">Given Data:</text>
    <text x="30" y="100" font-size="14" fill="#7f8c8d">• Container radius: r = 0.20 m</text>
    <text x="30" y="120" font-size="14" fill="#7f8c8d">• Liquid height: h = 0.10 m</text>
    <text x="30" y="140" font-size="14" fill="#7f8c8d">• Surface charge: σ = −2.0 μC/m²</text>
    <text x="30" y="160" font-size="14" fill="#7f8c8d">• Capacitance: C = 35 pF</text>
    <text x="30" y="180" font-size="14" fill="#7f8c8d">• Min ignition energy: E_min = 10 mJ</text>

    <text x="20" y="220" font-size="16" font-weight="bold" fill="#2c3e50">(a) Induced Charge:</text>
    <text x="30" y="245" font-size="14" fill="#7f8c8d">Container surface area:</text>
    <text x="40" y="265" font-size="13" fill="#95a5a6">A = 2πrh = 2π(0.20)(0.10) = 0.126 m²</text>
    <text x="30" y="285" font-size="14" fill="#7f8c8d">Total charge on container:</text>
    <text x="40" y="305" font-size="13" fill="#95a5a6">Q = σ × A = 2.0×10⁻⁶ × 0.126</text>
    <text x="40" y="325" font-size="13" fill="#e74c3c" font-weight="bold">Q = 2.5×10⁻⁷ C = 0.25 μC</text>

    <text x="20" y="365" font-size="16" font-weight="bold" fill="#2c3e50">(b) Potential Energy:</text>
    <text x="30" y="390" font-size="14" fill="#7f8c8d">U = Q²/(2C)</text>
    <text x="30" y="410" font-size="14" fill="#7f8c8d">U = (2.5×10⁻⁷)² / (2 × 35×10⁻¹²)</text>
    <text x="30" y="430" font-size="14" fill="#e74c3c" font-weight="bold">U = 8.9×10⁻⁴ J = 0.89 mJ</text>

    <text x="20" y="470" font-size="16" font-weight="bold" fill="#2c3e50">(c) Safety Check:</text>
    <text x="30" y="495" font-size="14" fill="#7f8c8d">Compare U_stored vs E_min:</text>
    <text x="30" y="515" font-size="14" fill="#95a5a6">U_stored = 0.89 mJ</text>
    <text x="30" y="535" font-size="14" fill="#95a5a6">E_min = 10 mJ</text>
    <text x="30" y="555" font-size="14" fill="#27ae60" font-weight="bold">Ratio: E_min/U = 10/0.89 ≈ 11</text>

    <rect x="10" y="575" width="580" height="65" fill="#e8f5e9" stroke="#27ae60" stroke-width="2" rx="5"/>
    <text x="25" y="600" font-size="15" font-weight="bold" fill="#27ae60">✓ SAFE</text>
    <text x="25" y="620" font-size="13" fill="#2c3e50">Stored energy is ~11× lower than ignition threshold.</text>
    <text x="25" y="635" font-size="13" fill="#2c3e50">Reasonable safety margin under these conditions.</text>
  </g>
</svg>