<?xml version="1.0" ?>
<svg xmlns="http://www.w3.org/2000/svg" width="1000" height="600" version="1.1">
  <defs>
    <marker id="arrowhead" markerWidth="10" markerHeight="10" refX="9" refY="3" orient="auto">
      <polygon points="0 0, 10 3, 0 6" fill="#000000"/>
    </marker>
    <marker id="arrowhead-blue" markerWidth="10" markerHeight="10" refX="9" refY="3" orient="auto">
      <polygon points="0 0, 10 3, 0 6" fill="#0066cc"/>
    </marker>
  </defs>
  <rect width="1000" height="600" fill="#FFFFFF"/>
  <text x="500.0" y="40" text-anchor="middle" font-size="24" font-weight="bold" font-family="Arial" fill="#333333">Capacitor Circuit</text>
  <g id="objects">
    <g id="battery_125.0_300.0">
      <line x1="120.0" y1="275.0" x2="120.0" y2="325.0" stroke="#000000" stroke-width="3"/>
      <line x1="130.0" y1="285.0" x2="130.0" y2="315.0" stroke="#000000" stroke-width="2"/>
      <line x1="85.0" y1="300.0" x2="120.0" y2="300.0" stroke="#000000" stroke-width="2.0"/>
      <line x1="130.0" y1="300.0" x2="165.0" y2="300.0" stroke="#000000" stroke-width="2.0"/>
      <text x="105.0" y="305.0" text-anchor="middle" font-size="18" font-weight="bold" fill="#000000">+</text>
      <text x="125.0" y="260.0" text-anchor="middle" font-size="14" font-family="Arial">300 V</text>
    </g>
    <g id="capacitor_350.0_300.0">
      <line x1="342.0" y1="270.0" x2="342.0" y2="330.0" stroke="#000000" stroke-width="2"/>
      <line x1="358.0" y1="270.0" x2="358.0" y2="330.0" stroke="#000000" stroke-width="2"/>
      <line x1="310.0" y1="300.0" x2="342.0" y2="300.0" stroke="#000000" stroke-width="2.0"/>
      <line x1="358.0" y1="300.0" x2="390.0" y2="300.0" stroke="#000000" stroke-width="2.0"/>
      <text x="350.0" y="260.0" text-anchor="middle" font-size="14" font-family="Arial">2.00 μF</text>
    </g>
    <g id="capacitor_575.0_300.0">
      <line x1="567.0" y1="270.0" x2="567.0" y2="330.0" stroke="#000000" stroke-width="2"/>
      <line x1="583.0" y1="270.0" x2="583.0" y2="330.0" stroke="#000000" stroke-width="2"/>
      <line x1="535.0" y1="300.0" x2="567.0" y2="300.0" stroke="#000000" stroke-width="2.0"/>
      <line x1="583.0" y1="300.0" x2="615.0" y2="300.0" stroke="#000000" stroke-width="2.0"/>
      <text x="575.0" y="260.0" text-anchor="middle" font-size="14" font-family="Arial">8.00 μF</text>
    </g>
  </g>
  <g id="relationships">
    <line x1="125.0" y1="300.0" x2="350.0" y2="300.0" stroke="#666666" stroke-width="2"/>
    <line x1="350.0" y1="300.0" x2="575.0" y2="300.0" stroke="#666666" stroke-width="2"/>
  </g>
  <g id="annotations">
    <text x="500.0" y="50" font-size="16" font-family="Arial" fill="#667eea">Series Configuration</text>
  </g>
</svg>
