<?xml version="1.0" ?>
<svg xmlns="http://www.w3.org/2000/svg" width="1000" height="600" version="1.1">
  <defs>
    <marker id="arrowhead" markerWidth="10" markerHeight="10" refX="9" refY="3" orient="auto">
      <polygon points="0 0, 10 3, 0 6" fill="#000000"/>
    </marker>
    <marker id="arrowhead-blue" markerWidth="10" markerHeight="10" refX="9" refY="3" orient="auto">
      <polygon points="0 0, 10 3, 0 6" fill="#0066cc"/>
    </marker>
  </defs>
  <rect width="1000" height="600" fill="#FFFFFF"/>
  <text x="500.0" y="40" text-anchor="middle" font-size="24" font-weight="bold" font-family="Arial" fill="#333333">Capacitor Circuit</text>
  <g id="objects">
    <g id="battery_150.0_300.0">
      <line x1="145.0" y1="275.0" x2="145.0" y2="325.0" stroke="#000000" stroke-width="3"/>
      <line x1="155.0" y1="285.0" x2="155.0" y2="315.0" stroke="#000000" stroke-width="2"/>
      <line x1="110.0" y1="300.0" x2="145.0" y2="300.0" stroke="#000000" stroke-width="2.0"/>
      <line x1="155.0" y1="300.0" x2="190.0" y2="300.0" stroke="#000000" stroke-width="2.0"/>
      <text x="130.0" y="305.0" text-anchor="middle" font-size="18" font-weight="bold" fill="#000000">+</text>
      <text x="150.0" y="260.0" text-anchor="middle" font-size="14" font-family="Arial">15.0 V</text>
    </g>
    <g id="capacitor_350.0_300.0">
      <line x1="342.0" y1="270.0" x2="342.0" y2="330.0" stroke="#000000" stroke-width="2"/>
      <line x1="358.0" y1="270.0" x2="358.0" y2="330.0" stroke="#000000" stroke-width="2"/>
      <line x1="310.0" y1="300.0" x2="342.0" y2="300.0" stroke="#000000" stroke-width="2.0"/>
      <line x1="358.0" y1="300.0" x2="390.0" y2="300.0" stroke="#000000" stroke-width="2.0"/>
      <text x="350.0" y="260.0" text-anchor="middle" font-size="14" font-family="Arial">15.0 μF</text>
    </g>
    <g id="capacitor_550.0_300.0">
      <line x1="542.0" y1="270.0" x2="542.0" y2="330.0" stroke="#000000" stroke-width="2"/>
      <line x1="558.0" y1="270.0" x2="558.0" y2="330.0" stroke="#000000" stroke-width="2"/>
      <line x1="510.0" y1="300.0" x2="542.0" y2="300.0" stroke="#000000" stroke-width="2.0"/>
      <line x1="558.0" y1="300.0" x2="590.0" y2="300.0" stroke="#000000" stroke-width="2.0"/>
      <text x="550.0" y="260.0" text-anchor="middle" font-size="14" font-family="Arial">3.00 μF</text>
    </g>
    <g id="capacitor_750.0_300.0">
      <line x1="742.0" y1="270.0" x2="742.0" y2="330.0" stroke="#000000" stroke-width="2"/>
      <line x1="758.0" y1="270.0" x2="758.0" y2="330.0" stroke="#000000" stroke-width="2"/>
      <line x1="710.0" y1="300.0" x2="742.0" y2="300.0" stroke="#000000" stroke-width="2.0"/>
      <line x1="758.0" y1="300.0" x2="790.0" y2="300.0" stroke="#000000" stroke-width="2.0"/>
      <text x="750.0" y="260.0" text-anchor="middle" font-size="14" font-family="Arial">6.00 μF</text>
    </g>
    <g id="capacitor_950.0_300.0">
      <line x1="942.0" y1="270.0" x2="942.0" y2="330.0" stroke="#000000" stroke-width="2"/>
      <line x1="958.0" y1="270.0" x2="958.0" y2="330.0" stroke="#000000" stroke-width="2"/>
      <line x1="910.0" y1="300.0" x2="942.0" y2="300.0" stroke="#000000" stroke-width="2.0"/>
      <line x1="958.0" y1="300.0" x2="990.0" y2="300.0" stroke="#000000" stroke-width="2.0"/>
      <text x="950.0" y="260.0" text-anchor="middle" font-size="14" font-family="Arial">20.0 μF</text>
    </g>
  </g>
  <g id="relationships">
    <line x1="150.0" y1="300.0" x2="350.0" y2="300.0" stroke="#666666" stroke-width="2"/>
    <line x1="150.0" y1="300.0" x2="550.0" y2="300.0" stroke="#666666" stroke-width="2"/>
    <line x1="150.0" y1="300.0" x2="750.0" y2="300.0" stroke="#666666" stroke-width="2"/>
    <line x1="150.0" y1="300.0" x2="950.0" y2="300.0" stroke="#666666" stroke-width="2"/>
  </g>
  <g id="annotations">
    <text x="500.0" y="100" font-size="14" font-family="Arial" fill="#333333">b = 15</text>
  </g>
</svg>
