<?xml version="1.0" ?>
<svg xmlns="http://www.w3.org/2000/svg" width="1000" height="600" version="1.1">
  <defs>
    <marker id="arrowhead" markerWidth="10" markerHeight="10" refX="9" refY="3" orient="auto">
      <polygon points="0 0, 10 3, 0 6" fill="#000000"/>
    </marker>
    <marker id="arrowhead-blue" markerWidth="10" markerHeight="10" refX="9" refY="3" orient="auto">
      <polygon points="0 0, 10 3, 0 6" fill="#0066cc"/>
    </marker>
  </defs>
  <rect width="1000" height="600" fill="#FFFFFF"/>
  <text x="500.0" y="40" text-anchor="middle" font-size="24" font-weight="bold" font-family="Arial" fill="#333333">Capacitor Circuit</text>
  <g id="objects">
    <rect x="125.5" y="225.0" width="3" height="150" fill="#2c3e50" stroke="#000000" stroke-width="2.0" opacity="1.0"/>
    <rect x="168.5" y="225.0" width="3" height="150" fill="#2c3e50" stroke="#000000" stroke-width="2.0" opacity="1.0"/>
    <rect x="138.0" y="240.0" width="24.0" height="120.0" fill="#e3f2fd" stroke="#3498db" stroke-width="1.0" opacity="0.6"/>
    <g id="C1_neg_charge_0">
      <rect x="95.0" y="230.0" width="40" height="40" fill="#EEEEEE" stroke="#999999" stroke-width="2"/>
      <text x="115.0" y="255.0" text-anchor="middle" font-size="10">−</text>
    </g>
    <g id="C1_neg_charge_1">
      <rect x="95.0" y="255.0" width="40" height="40" fill="#EEEEEE" stroke="#999999" stroke-width="2"/>
      <text x="115.0" y="280.0" text-anchor="middle" font-size="10">−</text>
    </g>
    <g id="C1_neg_charge_2">
      <rect x="95.0" y="280.0" width="40" height="40" fill="#EEEEEE" stroke="#999999" stroke-width="2"/>
      <text x="115.0" y="305.0" text-anchor="middle" font-size="10">−</text>
    </g>
    <g id="C1_neg_charge_3">
      <rect x="95.0" y="305.0" width="40" height="40" fill="#EEEEEE" stroke="#999999" stroke-width="2"/>
      <text x="115.0" y="330.0" text-anchor="middle" font-size="10">−</text>
    </g>
    <g id="C1_neg_charge_4">
      <rect x="95.0" y="330.0" width="40" height="40" fill="#EEEEEE" stroke="#999999" stroke-width="2"/>
      <text x="115.0" y="355.0" text-anchor="middle" font-size="10">−</text>
    </g>
    <g id="C1_pos_charge_0">
      <rect x="165.0" y="230.0" width="40" height="40" fill="#EEEEEE" stroke="#999999" stroke-width="2"/>
      <text x="185.0" y="255.0" text-anchor="middle" font-size="10">+</text>
    </g>
    <g id="C1_pos_charge_1">
      <rect x="165.0" y="255.0" width="40" height="40" fill="#EEEEEE" stroke="#999999" stroke-width="2"/>
      <text x="185.0" y="280.0" text-anchor="middle" font-size="10">+</text>
    </g>
    <g id="C1_pos_charge_2">
      <rect x="165.0" y="280.0" width="40" height="40" fill="#EEEEEE" stroke="#999999" stroke-width="2"/>
      <text x="185.0" y="305.0" text-anchor="middle" font-size="10">+</text>
    </g>
    <g id="C1_pos_charge_3">
      <rect x="165.0" y="305.0" width="40" height="40" fill="#EEEEEE" stroke="#999999" stroke-width="2"/>
      <text x="185.0" y="330.0" text-anchor="middle" font-size="10">+</text>
    </g>
    <g id="C1_pos_charge_4">
      <rect x="165.0" y="330.0" width="40" height="40" fill="#EEEEEE" stroke="#999999" stroke-width="2"/>
      <text x="185.0" y="355.0" text-anchor="middle" font-size="10">+</text>
    </g>
    <g id="C1_label">
      <rect x="130" y="385.0" width="40" height="40" fill="#EEEEEE" stroke="#999999" stroke-width="2"/>
      <text x="150" y="410.0" text-anchor="middle" font-size="10">C1</text>
    </g>
    <g id="battery_100_300.0">
      <line x1="95" y1="275.0" x2="95" y2="325.0" stroke="#000000" stroke-width="3"/>
      <line x1="105" y1="285.0" x2="105" y2="315.0" stroke="#000000" stroke-width="2"/>
      <line x1="60.0" y1="300.0" x2="95" y2="300.0" stroke="#000000" stroke-width="2.0"/>
      <line x1="105" y1="300.0" x2="140.0" y2="300.0" stroke="#000000" stroke-width="2.0"/>
      <text x="80" y="305.0" text-anchor="middle" font-size="18" font-weight="bold" fill="#000000">+</text>
      <text x="100" y="260.0" text-anchor="middle" font-size="14" font-family="Arial">120 V</text>
    </g>
  </g>
  <g id="relationships"/>
  <g id="annotations">
    <text x="500.0" y="40" font-size="20" font-family="Arial" fill="#2c3e50">Parallel Capacitor Configuration (1 capacitors)</text>
    <text x="50" y="80" font-size="16" font-family="Arial" fill="#e74c3c">V = 120 V</text>
    <text x="850" y="120" font-size="14" font-family="Arial" fill="#16a085">Plate Area: 0.12 m²</text>
    <text x="850" y="150" font-size="14" font-family="Arial" fill="#16a085">Plate Separation: 1.2 cm</text>
  </g>
</svg>
